# xmcd
#
# Track frame offsets: 
#        150
#        11069
#        26412
#        38599
#        58203
#        71340
#        87422
#        100341
#        115592
#        128726
#        145559
#
# Disc length: 2130 seconds
#
# Revision: 1
# Processed by: cddbd v1.5.2PL0 Copyright (c) Steve Scherf et al.
# Submitted via: ExactAudioCopy v0.95b4
#
DISCID=8808500b
DTITLE=Bill Kirchen - Hammer Of The Honky Tonk Gods
DYEAR=2006
DGENRE=Country
TTITLE0=Hammer Of The Honky Tonk Gods
TTITLE1=Rocks Into Sand
TTITLE2=Get A Little Goner
TTITLE3=Skid Row In My Mind
TTITLE4=Working Man
TTITLE5=Soul Crusin'
TTITLE6=Truth Be Told
TTITLE7=Devil With The Blue Dress
TTITLE8=One More Day
TTITLE9=Heart Of Gold
TTITLE10=If It's Really Got To Be This Way
EXTD=YEAR: 2006
EXTT0=
EXTT1=
EXTT2=
EXTT3=
EXTT4=
EXTT5=
EXTT6=
EXTT7=
EXTT8=
EXTT9=
EXTT10=
PLAYORDER=
